<svg xmlns="http://www.w3.org/2000/svg" viewBox="0 0 120 120" width="120" height="120">
  <defs>
    <linearGradient id="g" x1="0%" y1="0%" x2="100%" y2="100%">
      <stop offset="0%" stop-color="#42b983"/>
      <stop offset="100%" stop-color="#2c3e50"/>
    </linearGradient>
  </defs>
  <!-- 圆角背景 -->
  <rect x="4" y="4" width="112" height="112" rx="24" fill="url(#g)"/>
  <!-- 火箭主体 -->
  <g fill="#fff">
    <!-- 箭身 -->
    <path d="M60 24c8 8 14 20 14 32v14H46V56c0-12 6-24 14-32z"/>
    <!-- 左翼 -->
    <path d="M46 70l-10 14c-2 3 0 6 4 5l12-4z" opacity="0.9"/>
    <!-- 右翼 -->
    <path d="M74 70l10 14c2 3 0 6-4 5l-12-4z" opacity="0.9"/>
    <!-- 舷窗 -->
    <circle cx="60" cy="54" r="6" fill="#42b983"/>
    <!-- 火焰 -->
    <path d="M54 80c2 6 2 12 6 16 4-4 4-10 6-16z" fill="#ffd166"/>
    <path d="M58 82c1 4 1 8 2 11 1-3 1-7 2-11z" fill="#ef476f"/>
  </g>
</svg>
